<mxfile host="app.diagrams.net" modified="2023-10-19T05:54:30.500Z" agent="Mozilla/5.0 (Windows NT 10.0; Win64; x64) AppleWebKit/537.36 (KHTML, like Gecko) Chrome/118.0.0.0 Safari/537.36 Edg/118.0.2088.46" etag="5qNuvLHMeBzQ3HWG8-oe" version="22.0.4" type="github" pages="2">
  <diagram name="Overall" id="bqNGNmUFSN8e8ksOwlX5">
    <mxGraphModel dx="972" dy="685" grid="1" gridSize="10" guides="1" tooltips="1" connect="1" arrows="1" fold="1" page="1" pageScale="1" pageWidth="850" pageHeight="1100" math="0" shadow="0">
      <root>
        <mxCell id="0" />
        <mxCell id="1" parent="0" />
        <mxCell id="HvrDz_iBMJWE99rpZcu3-1" value="Motivation" style="rounded=0;whiteSpace=wrap;html=1;" vertex="1" parent="1">
          <mxGeometry x="330" y="510" width="210" height="60" as="geometry" />
        </mxCell>
        <mxCell id="HvrDz_iBMJWE99rpZcu3-4" value="Target" style="rounded=0;whiteSpace=wrap;html=1;dashed=1;" vertex="1" parent="1">
          <mxGeometry x="375" y="120" width="120" height="60" as="geometry" />
        </mxCell>
        <mxCell id="HvrDz_iBMJWE99rpZcu3-5" value="" style="group" vertex="1" connectable="0" parent="1">
          <mxGeometry x="337.5" y="380" width="195" height="80" as="geometry" />
        </mxCell>
        <mxCell id="HvrDz_iBMJWE99rpZcu3-2" value="Attitudes" style="rounded=0;whiteSpace=wrap;html=1;" vertex="1" parent="HvrDz_iBMJWE99rpZcu3-5">
          <mxGeometry width="80" height="80" as="geometry" />
        </mxCell>
        <mxCell id="HvrDz_iBMJWE99rpZcu3-3" value="Methods" style="rounded=0;whiteSpace=wrap;html=1;" vertex="1" parent="HvrDz_iBMJWE99rpZcu3-5">
          <mxGeometry x="80" width="115" height="80" as="geometry" />
        </mxCell>
        <mxCell id="HvrDz_iBMJWE99rpZcu3-6" style="edgeStyle=orthogonalEdgeStyle;rounded=0;orthogonalLoop=1;jettySize=auto;html=1;entryX=0.157;entryY=1.042;entryDx=0;entryDy=0;entryPerimeter=0;" edge="1" parent="1" source="HvrDz_iBMJWE99rpZcu3-1" target="HvrDz_iBMJWE99rpZcu3-3">
          <mxGeometry relative="1" as="geometry" />
        </mxCell>
        <mxCell id="HvrDz_iBMJWE99rpZcu3-8" style="edgeStyle=orthogonalEdgeStyle;rounded=0;orthogonalLoop=1;jettySize=auto;html=1;exitX=0.153;exitY=0.025;exitDx=0;exitDy=0;exitPerimeter=0;" edge="1" parent="1" source="HvrDz_iBMJWE99rpZcu3-3" target="HvrDz_iBMJWE99rpZcu3-4">
          <mxGeometry relative="1" as="geometry" />
        </mxCell>
      </root>
    </mxGraphModel>
  </diagram>
  <diagram id="VhCHaG-jedz8EqlwKxE3" name="Design Research">
    <mxGraphModel dx="1166" dy="822" grid="1" gridSize="10" guides="1" tooltips="1" connect="1" arrows="1" fold="1" page="1" pageScale="1" pageWidth="850" pageHeight="1100" math="0" shadow="0">
      <root>
        <mxCell id="0" />
        <mxCell id="1" parent="0" />
        <mxCell id="0XJ9ytBPI_k_CE96YUFv-1" value="Design Research" style="rounded=0;whiteSpace=wrap;html=1;" vertex="1" parent="1">
          <mxGeometry x="355" y="400" width="125" height="60" as="geometry" />
        </mxCell>
        <mxCell id="0XJ9ytBPI_k_CE96YUFv-2" value="Writing Research" style="rounded=0;whiteSpace=wrap;html=1;" vertex="1" parent="1">
          <mxGeometry x="355" y="250" width="125" height="140" as="geometry" />
        </mxCell>
        <mxCell id="0XJ9ytBPI_k_CE96YUFv-3" value="Conferencing Research" style="rounded=0;whiteSpace=wrap;html=1;" vertex="1" parent="1">
          <mxGeometry x="355" y="180" width="125" height="60" as="geometry" />
        </mxCell>
        <mxCell id="0XJ9ytBPI_k_CE96YUFv-4" value="Publishing Research" style="rounded=0;whiteSpace=wrap;html=1;" vertex="1" parent="1">
          <mxGeometry x="355" y="110" width="125" height="60" as="geometry" />
        </mxCell>
        <mxCell id="0XJ9ytBPI_k_CE96YUFv-5" value="Authorship" style="rounded=0;whiteSpace=wrap;html=1;" vertex="1" parent="1">
          <mxGeometry x="352.5" y="70" width="127.5" height="30" as="geometry" />
        </mxCell>
        <mxCell id="0XJ9ytBPI_k_CE96YUFv-6" value="Literature Reivew" style="rounded=0;whiteSpace=wrap;html=1;" vertex="1" parent="1">
          <mxGeometry x="540" y="260" width="125" height="60" as="geometry" />
        </mxCell>
        <mxCell id="0XJ9ytBPI_k_CE96YUFv-7" value="Research Questions" style="rounded=0;whiteSpace=wrap;html=1;" vertex="1" parent="1">
          <mxGeometry x="540" y="330" width="125" height="60" as="geometry" />
        </mxCell>
        <mxCell id="0XJ9ytBPI_k_CE96YUFv-8" value="Research Methods" style="rounded=0;whiteSpace=wrap;html=1;" vertex="1" parent="1">
          <mxGeometry x="540" y="400" width="125" height="60" as="geometry" />
        </mxCell>
        <mxCell id="0XJ9ytBPI_k_CE96YUFv-9" value="Results" style="rounded=0;whiteSpace=wrap;html=1;" vertex="1" parent="1">
          <mxGeometry x="540" y="470" width="125" height="60" as="geometry" />
        </mxCell>
        <mxCell id="0XJ9ytBPI_k_CE96YUFv-10" value="Contribution" style="rounded=0;whiteSpace=wrap;html=1;" vertex="1" parent="1">
          <mxGeometry x="540" y="540" width="125" height="60" as="geometry" />
        </mxCell>
        <mxCell id="0XJ9ytBPI_k_CE96YUFv-11" value="" style="shape=curlyBracket;whiteSpace=wrap;html=1;rounded=1;labelPosition=left;verticalLabelPosition=middle;align=right;verticalAlign=middle;" vertex="1" parent="1">
          <mxGeometry x="500" y="290" width="20" height="290" as="geometry" />
        </mxCell>
      </root>
    </mxGraphModel>
  </diagram>
</mxfile>
